<svg width="526" height="555" viewBox="0 0 526 555" fill="none" xmlns="http://www.w3.org/2000/svg">
<path d="M226.823 1.41233C196.156 7.27899 172.556 19.8123 152.29 41.1457C135.09 59.0123 124.29 77.8123 118.023 100.879C115.356 110.746 114.956 115.146 115.09 134.879C115.09 159.812 116.69 168.212 124.956 187.946C133.756 209.012 153.623 233.279 172.823 246.212C212.69 273.012 262.823 277.012 305.756 257.012C321.09 249.812 332.023 242.079 344.423 229.679C361.89 212.212 373.09 192.612 379.89 167.812C382.29 159.279 382.823 153.812 382.823 134.879C382.823 115.279 382.423 110.612 379.756 100.879C373.623 78.079 362.823 59.0123 345.89 41.279C320.69 14.879 289.89 1.27899 252.956 0.0789939C242.29 -0.187673 232.823 0.212327 226.823 1.41233ZM267.356 44.2123C290.156 48.7457 312.69 63.9457 325.756 83.8123C343.223 110.079 345.89 145.679 332.423 173.679C323.09 193.146 308.156 208.346 289.756 217.412C275.623 224.212 265.09 226.612 248.956 226.612C232.69 226.612 222.29 224.212 208.023 217.279C183.623 205.412 164.823 181.412 158.823 154.479C155.49 139.412 156.69 119.546 161.89 104.746C177.09 60.879 221.89 35.279 267.356 44.2123Z" fill="white" fill-opacity="0.8"/>
<path d="M135.49 315.012C72.5563 326.346 21.7562 373.012 5.75625 434.212C1.75625 449.679 -0.910419 472.212 0.289581 482.212C2.15625 498.746 9.48958 515.946 19.6229 527.812C26.8229 536.079 42.8229 546.746 54.0229 550.479L62.9562 553.546L186.023 553.946C323.223 554.346 314.556 554.879 322.023 545.146C327.223 538.346 327.223 527.412 321.89 520.479C319.89 517.812 316.823 514.879 315.223 513.946C312.956 512.612 285.09 512.079 190.29 511.546L68.2896 510.879L62.8229 507.946C55.4896 504.079 49.2229 497.412 45.7562 490.212C39.8896 477.546 43.7562 447.679 54.2896 425.279C66.9562 398.346 88.8229 376.879 115.623 365.279C137.09 356.079 132.823 356.346 226.956 355.546C322.156 354.746 315.49 355.546 323.09 345.412C330.023 336.479 327.223 322.746 316.956 315.946L312.556 312.879L229.09 313.012C164.556 313.146 143.356 313.546 135.49 315.012Z" fill="white" fill-opacity="0.8"/>
<path d="M410.556 343.012C408.156 344.346 404.556 347.412 402.556 349.946L398.956 354.612L398.556 390.479L398.156 426.212H364.156C326.023 426.212 323.89 426.612 317.223 435.279C312.023 442.079 312.023 453.012 317.223 459.812C323.89 468.479 326.023 468.879 364.156 468.879H398.29V503.012C398.29 541.146 398.69 543.279 407.356 549.946C414.156 555.146 425.09 555.146 431.89 549.946C440.556 543.279 440.956 541.146 440.956 503.012V468.879H475.09C513.223 468.879 515.356 468.479 522.023 459.812C524.956 455.946 525.623 453.679 525.623 447.546C525.623 441.412 524.956 439.146 522.023 435.279C515.356 426.612 513.223 426.212 475.09 426.212H440.956V392.079C440.956 354.079 440.556 351.679 432.023 345.279C426.29 340.879 416.823 339.812 410.556 343.012Z" fill="white" fill-opacity="0.8"/>
</svg>
