<svg width="340" height="21" viewBox="0 0 178 53" fill="none" xmlns="http://www.w3.org/2000/svg">
<g filter="url(#filter0_d_1_3)">
<path d="M15.4141 7.07031C15.3411 6.96094 15.2135 6.85156 15.0312 6.74219C14.8854 6.63281 14.7031 6.54167 14.4844 6.46875C14.2656 6.39583 14.0469 6.3776 13.8281 6.41406C13.6458 6.41406 13.5 6.48698 13.3906 6.63281C13.2812 6.8151 13.0807 7.50781 12.7891 8.71094C12.5339 9.8776 12.2604 11.3359 11.9688 13.0859C11.6771 14.8359 11.4219 16.7865 11.2031 18.9375C10.9844 21.0885 10.875 23.2214 10.875 25.3359C10.875 26.8672 10.9297 28.4714 11.0391 30.1484C11.1484 31.7891 11.276 33.3021 11.4219 34.6875C11.6042 36.0729 11.8047 37.2214 12.0234 38.1328C12.2786 39.0078 12.5339 39.4453 12.7891 39.4453C13.0443 39.4818 13.3906 39.2083 13.8281 38.625C14.2656 38.0417 14.6849 37.3854 15.0859 36.6562C15.487 35.8906 15.8516 35.1615 16.1797 34.4688C16.5443 33.7396 16.7812 33.2474 16.8906 32.9922C17.0365 32.5911 17.237 32.1536 17.4922 31.6797C17.7474 31.1693 18.0026 30.7135 18.2578 30.3125C18.513 29.875 18.7682 29.5286 19.0234 29.2734C19.2786 28.9818 19.4974 28.8359 19.6797 28.8359C19.8984 28.8359 20.0807 29.0547 20.2266 29.4922C20.4089 29.9297 20.5365 30.4583 20.6094 31.0781C20.7188 31.6615 20.7917 32.2812 20.8281 32.9375C20.8646 33.5573 20.8828 34.0677 20.8828 34.4688C20.8828 35.1979 20.737 36.1094 20.4453 37.2031C20.1901 38.2969 19.8438 39.3542 19.4062 40.375C19.0052 41.3958 18.5495 42.2708 18.0391 43C17.5651 43.7292 17.1094 44.0755 16.6719 44.0391C16.2344 44.0026 15.5234 43.7474 14.5391 43.2734C13.5911 42.7995 12.6068 42.2526 11.5859 41.6328C10.5651 41.013 9.63542 40.3932 8.79688 39.7734C7.95833 39.1536 7.46615 38.6615 7.32031 38.2969C7.13802 37.9688 6.86458 37.1849 6.5 35.9453C6.17188 34.6693 5.82552 33.138 5.46094 31.3516C5.09635 29.5651 4.76823 27.5964 4.47656 25.4453C4.22135 23.2943 4.09375 21.125 4.09375 18.9375C4.09375 16.75 4.11198 14.599 4.14844 12.4844C4.1849 10.3333 4.25781 8.41927 4.36719 6.74219C4.51302 5.0651 4.73177 3.71615 5.02344 2.69531C5.3151 1.63802 5.71615 1.07292 6.22656 1C7.2474 0.890625 8.35938 0.963542 9.5625 1.21875C10.7656 1.4375 11.9688 1.78385 13.1719 2.25781C14.375 2.73177 15.5234 3.27865 16.6172 3.89844C17.7474 4.48177 18.75 5.10156 19.625 5.75781C20.5 6.3776 21.1927 6.97917 21.7031 7.5625C22.25 8.14583 22.5417 8.63802 22.5781 9.03906C22.6146 9.65885 22.5417 10.3516 22.3594 11.1172C22.1771 11.8828 21.9583 12.6302 21.7031 13.3594C21.4479 14.0521 21.1745 14.6901 20.8828 15.2734C20.6276 15.8203 20.4271 16.2031 20.2812 16.4219C20.099 16.6771 19.8802 16.9505 19.625 17.2422C19.3698 17.5339 19.0964 17.7891 18.8047 18.0078C18.5495 18.2266 18.276 18.3906 17.9844 18.5C17.7292 18.5729 17.4922 18.5182 17.2734 18.3359C17.1276 18.2266 16.9818 17.8802 16.8359 17.2969C16.7266 16.7135 16.599 16.0208 16.4531 15.2188C16.3438 14.4167 16.2344 13.5599 16.125 12.6484C16.0156 11.7005 15.9062 10.8255 15.7969 10.0234C15.724 9.22135 15.651 8.54688 15.5781 8C15.5052 7.45312 15.4505 7.14323 15.4141 7.07031ZM28.9766 42.6719C28.7214 42.7448 28.4297 42.6536 28.1016 42.3984C27.7734 42.1432 27.4453 41.8333 27.1172 41.4688C26.8255 41.0677 26.5703 40.6484 26.3516 40.2109C26.1328 39.7734 25.987 39.4089 25.9141 39.1172C25.6589 35.9089 25.4401 33.0469 25.2578 30.5312C25.112 27.9792 24.9844 25.7188 24.875 23.75C24.7656 21.7812 24.6745 20.0859 24.6016 18.6641C24.5651 17.2057 24.5469 15.9661 24.5469 14.9453C24.5104 12.5755 24.5469 10.9349 24.6562 10.0234C24.7656 9.36719 25.0573 8.71094 25.5312 8.05469C26.0417 7.39844 26.5703 6.83333 27.1172 6.35938C27.7005 5.88542 28.2292 5.52083 28.7031 5.26562C29.2135 5.01042 29.5417 4.9375 29.6875 5.04688C29.8333 5.15625 29.9427 5.77604 30.0156 6.90625C30.0885 8 30.1432 9.4401 30.1797 11.2266C30.2161 13.013 30.2161 15.0182 30.1797 17.2422C30.1797 19.4661 30.1432 21.7448 30.0703 24.0781C30.0339 26.4115 29.9792 28.6901 29.9062 30.9141C29.8333 33.138 29.7422 35.125 29.6328 36.875C29.5234 38.5885 29.4141 39.974 29.3047 41.0312C29.1953 42.0885 29.0859 42.6354 28.9766 42.6719ZM39.8594 19.4844C39.9323 19.6667 39.9688 20.25 39.9688 21.2344C40.0052 22.1823 40.0052 23.349 39.9688 24.7344C39.9688 26.0833 39.9323 27.5417 39.8594 29.1094C39.7865 30.6406 39.6953 32.099 39.5859 33.4844C39.513 34.8333 39.4219 36 39.3125 36.9844C39.2031 37.9323 39.0938 38.4974 38.9844 38.6797C38.6562 39.1901 38.1641 39.5182 37.5078 39.6641C36.8516 39.7734 36.3776 39.7917 36.0859 39.7188C35.9401 39.7188 35.776 39.2995 35.5938 38.4609C35.4479 37.6224 35.3021 36.5651 35.1562 35.2891C35.0104 34.013 34.8828 32.6276 34.7734 31.1328C34.6641 29.638 34.5729 28.2161 34.5 26.8672C34.4271 25.4818 34.3906 24.2786 34.3906 23.2578C34.3906 22.237 34.4271 21.5807 34.5 21.2891C34.6094 20.8151 34.9193 20.3958 35.4297 20.0312C35.9766 19.6667 36.5417 19.3932 37.125 19.2109C37.7448 19.0286 38.3099 18.9557 38.8203 18.9922C39.3672 18.9922 39.7135 19.1562 39.8594 19.4844ZM40.1328 10.625C40.2786 10.9167 40.3333 11.3177 40.2969 11.8281C40.2969 12.3385 40.2422 12.8672 40.1328 13.4141C40.0234 13.9609 39.8776 14.4896 39.6953 15C39.513 15.5104 39.3307 15.9115 39.1484 16.2031C38.7839 16.7135 38.237 17.0417 37.5078 17.1875C36.8151 17.2969 36.3047 17.3151 35.9766 17.2422C35.7214 17.2057 35.4661 17.0417 35.2109 16.75C34.9557 16.4219 34.737 16.0391 34.5547 15.6016C34.3724 15.1276 34.2448 14.6172 34.1719 14.0703C34.099 13.5234 34.1172 13.013 34.2266 12.5391C34.3359 12.0651 34.6823 11.6458 35.2656 11.2812C35.849 10.8802 36.4688 10.5885 37.125 10.4062C37.7812 10.1875 38.401 10.0964 38.9844 10.1328C39.5677 10.1328 39.9505 10.2969 40.1328 10.625ZM48.2266 27.1953C48.8099 26.9766 49.4661 26.7396 50.1953 26.4844C50.9609 26.1927 51.6901 25.9375 52.3828 25.7188C53.0755 25.4635 53.6953 25.2448 54.2422 25.0625C54.7891 24.8802 55.1901 24.7344 55.4453 24.625C55.4089 24.224 55.3542 23.7682 55.2812 23.2578C55.2448 22.7109 55.1901 22.2005 55.1172 21.7266C55.0443 21.2161 54.9531 20.7786 54.8438 20.4141C54.7344 20.0495 54.625 19.8307 54.5156 19.7578C54.224 19.6484 53.7318 19.5573 53.0391 19.4844C52.3828 19.375 51.6901 19.3932 50.9609 19.5391C50.2682 19.6849 49.6302 19.9583 49.0469 20.3594C48.4635 20.7604 48.1354 21.3984 48.0625 22.2734C47.9896 22.8568 47.9714 23.5859 48.0078 24.4609C48.0443 25.3359 48.1172 26.2474 48.2266 27.1953ZM60.0938 28.0703C60.0573 28.1432 59.6198 28.2891 58.7812 28.5078C57.9427 28.7266 56.9401 28.9635 55.7734 29.2188C54.6068 29.4375 53.3672 29.6745 52.0547 29.9297C50.7422 30.1484 49.612 30.3307 48.6641 30.4766C48.8464 31.9349 49.0651 33.2474 49.3203 34.4141C49.5755 35.5443 49.7943 36.2552 49.9766 36.5469C50.1589 36.8021 50.3958 37.0391 50.6875 37.2578C50.9427 37.4401 51.2526 37.6224 51.6172 37.8047C52.0182 37.9505 52.4922 38.0599 53.0391 38.1328C53.4401 38.2422 53.8229 38.0964 54.1875 37.6953C54.4792 37.3307 54.7344 36.6927 54.9531 35.7812C55.2083 34.8698 55.3359 33.4297 55.3359 31.4609C56.4661 31.2786 57.3411 31.1693 57.9609 31.1328C58.6172 31.0964 59.0911 31.0964 59.3828 31.1328C59.7474 31.1693 59.9661 31.224 60.0391 31.2969C60.0755 31.4062 60.0755 31.6797 60.0391 32.1172C60.0026 32.5547 59.9115 33.1016 59.7656 33.7578C59.6562 34.3776 59.5104 35.0703 59.3281 35.8359C59.1823 36.5651 59 37.276 58.7812 37.9688C58.5625 38.625 58.3255 39.2266 58.0703 39.7734C57.8151 40.2839 57.5417 40.6484 57.25 40.8672C56.375 41.5234 55.2812 41.8516 53.9688 41.8516C52.6562 41.8151 51.362 41.6328 50.0859 41.3047C48.8099 40.9401 47.6615 40.5208 46.6406 40.0469C45.6198 39.5365 44.9818 39.1172 44.7266 38.7891C44.5443 38.5703 44.3802 38.0234 44.2344 37.1484C44.0885 36.237 43.9609 35.1432 43.8516 33.8672C43.7786 32.5911 43.724 31.1875 43.6875 29.6562C43.651 28.125 43.6693 26.6302 43.7422 25.1719C43.8516 23.7135 43.9974 22.3646 44.1797 21.125C44.3984 19.8854 44.6901 18.8828 45.0547 18.1172C45.6016 17.0234 46.4948 16.1302 47.7344 15.4375C48.974 14.7448 50.2865 14.2708 51.6719 14.0156C53.0573 13.7604 54.3698 13.724 55.6094 13.9062C56.8854 14.0885 57.8333 14.4896 58.4531 15.1094C58.8177 15.474 59.1458 16.2031 59.4375 17.2969C59.7292 18.3542 59.9115 19.6484 59.9844 21.1797C59.9844 21.3255 60.0026 21.7448 60.0391 22.4375C60.0755 23.1302 60.0938 23.8776 60.0938 24.6797C60.1302 25.4453 60.1484 26.1745 60.1484 26.8672C60.1484 27.5599 60.1302 27.9609 60.0938 28.0703ZM79.1797 20.0859C79.1797 20.6693 79.1068 21.5078 78.9609 22.6016C78.8516 23.6953 78.6875 24.8984 78.4688 26.2109C78.25 27.487 78.013 28.8177 77.7578 30.2031C77.5391 31.5521 77.3021 32.7917 77.0469 33.9219C76.8281 35.0521 76.6276 36 76.4453 36.7656C76.2995 37.5312 76.2083 37.9505 76.1719 38.0234C76.099 38.1328 75.8984 38.2057 75.5703 38.2422C75.2786 38.2422 74.9323 38.2057 74.5312 38.1328C74.1667 38.0599 73.8203 37.9505 73.4922 37.8047C73.2005 37.6589 73.0182 37.4766 72.9453 37.2578C72.9089 37.112 72.8906 36.6016 72.8906 35.7266C72.9271 34.8516 72.9635 33.8125 73 32.6094C73.0729 31.3698 73.1458 30.0573 73.2188 28.6719C73.2917 27.25 73.3646 25.9375 73.4375 24.7344C73.5469 23.4948 73.6198 22.4375 73.6562 21.5625C73.7292 20.6875 73.7656 20.1589 73.7656 19.9766C73.7656 19.3203 73.6927 18.7005 73.5469 18.1172C73.4375 17.4974 73.2917 16.9688 73.1094 16.5312C72.9271 16.0938 72.7083 15.7656 72.4531 15.5469C72.2344 15.2917 72.0339 15.2005 71.8516 15.2734C71.3776 15.3464 70.9766 15.474 70.6484 15.6562C70.3203 15.8021 70.0469 15.9661 69.8281 16.1484C69.5729 16.3672 69.3724 16.6224 69.2266 16.9141C69.1901 16.987 69.1172 17.2057 69.0078 17.5703C68.9349 17.9349 68.8984 18.3542 68.8984 18.8281C68.8984 18.974 68.8984 19.5026 68.8984 20.4141C68.8984 21.2891 68.8802 22.3464 68.8438 23.5859C68.8438 24.8255 68.8255 26.1745 68.7891 27.6328C68.7891 29.0547 68.7708 30.3854 68.7344 31.625C68.7344 32.8281 68.7161 33.8672 68.6797 34.7422C68.6432 35.6172 68.6068 36.1094 68.5703 36.2188C68.4974 36.4375 68.3151 36.7474 68.0234 37.1484C67.7318 37.513 67.4036 37.8594 67.0391 38.1875C66.6745 38.5156 66.3281 38.7708 66 38.9531C65.6719 39.099 65.4531 39.0625 65.3438 38.8438C65.2344 38.7344 65.125 38.2057 65.0156 37.2578C64.9062 36.2734 64.7786 35.0885 64.6328 33.7031C64.5234 32.2812 64.3958 30.75 64.25 29.1094C64.1042 27.4323 63.9766 25.8281 63.8672 24.2969C63.7578 22.7656 63.6667 21.3802 63.5938 20.1406C63.5208 18.901 63.4661 18.0078 63.4297 17.4609C63.3932 16.6953 63.3568 15.8385 63.3203 14.8906C63.2839 13.9062 63.2474 12.9948 63.2109 12.1562C63.2109 11.2812 63.2109 10.5339 63.2109 9.91406C63.2474 9.25781 63.3203 8.85677 63.4297 8.71094C63.5026 8.5651 63.7396 8.52865 64.1406 8.60156C64.5781 8.67448 65.0339 8.82031 65.5078 9.03906C66.0182 9.22135 66.4922 9.45833 66.9297 9.75C67.3672 10.0052 67.6589 10.2604 67.8047 10.5156C67.8776 10.7344 67.9688 10.9896 68.0781 11.2812C68.1875 11.5365 68.2786 11.974 68.3516 12.5938C68.9714 12.2292 69.6458 11.901 70.375 11.6094C71.1042 11.2812 71.8151 11.0443 72.5078 10.8984C73.237 10.7161 73.9297 10.6615 74.5859 10.7344C75.2422 10.7708 75.8255 10.9531 76.3359 11.2812C76.6641 11.5365 76.9922 11.974 77.3203 12.5938C77.6849 13.2135 77.9948 13.9427 78.25 14.7812C78.5417 15.6198 78.7604 16.513 78.9062 17.4609C79.0885 18.3724 79.1797 19.2474 79.1797 20.0859ZM94.1094 14.8906C94.1458 15 94.1458 15.3099 94.1094 15.8203C94.0729 16.2943 94 16.8411 93.8906 17.4609C93.8177 18.0443 93.7266 18.5911 93.6172 19.1016C93.5078 19.5755 93.4167 19.8672 93.3438 19.9766C92.9792 20.013 92.6146 20.0312 92.25 20.0312C91.8854 19.9948 91.5391 19.9766 91.2109 19.9766H90.0625C90.026 22.3828 89.9714 24.7708 89.8984 27.1406C89.8255 29.5104 89.7344 31.6432 89.625 33.5391C89.5156 35.3984 89.388 36.9115 89.2422 38.0781C89.1328 39.2448 89.0234 39.8464 88.9141 39.8828C88.6589 39.9193 88.3672 39.8099 88.0391 39.5547C87.7109 39.2995 87.3828 38.9896 87.0547 38.625C86.763 38.224 86.4896 37.8229 86.2344 37.4219C86.0156 36.9844 85.888 36.6016 85.8516 36.2734C85.6693 34.0495 85.5052 31.9349 85.3594 29.9297C85.2135 27.888 85.1042 26.0833 85.0312 24.5156C84.8854 22.6927 84.7943 20.9974 84.7578 19.4297C84.3568 19.3932 83.9557 19.3385 83.5547 19.2656C83.1901 19.1927 82.8073 19.1198 82.4062 19.0469C82.0417 18.974 81.6589 18.901 81.2578 18.8281C81.1849 18.7552 81.0938 18.5911 80.9844 18.3359C80.875 18.0443 80.7656 17.7344 80.6562 17.4062C80.5833 17.0781 80.5104 16.7682 80.4375 16.4766C80.3646 16.1484 80.3281 15.9115 80.3281 15.7656C80.3281 15.6562 80.7292 15.5469 81.5312 15.4375C82.3698 15.3281 83.3906 15.237 84.5938 15.1641C84.5208 13.2318 84.4661 11.5547 84.4297 10.1328C84.4297 8.67448 84.4844 7.6901 84.5938 7.17969C84.7031 6.48698 84.9948 5.83073 85.4688 5.21094C85.9792 4.55469 86.5078 3.98958 87.0547 3.51562C87.638 3.04167 88.1667 2.69531 88.6406 2.47656C89.151 2.22135 89.4792 2.14844 89.625 2.25781C89.7344 2.33073 89.8255 2.71354 89.8984 3.40625C89.9714 4.0625 90.026 4.95573 90.0625 6.08594C90.099 7.21615 90.1172 8.54688 90.1172 10.0781C90.1172 11.5729 90.1172 13.1589 90.1172 14.8359C91.2109 14.763 92.1406 14.7448 92.9062 14.7812C93.6719 14.7812 94.0729 14.8177 94.1094 14.8906ZM129.438 28.3984C129.51 28.5078 129.492 28.8724 129.383 29.4922C129.31 30.112 129.182 30.7865 129 31.5156C128.854 32.2448 128.69 32.9375 128.508 33.5938C128.362 34.2135 128.234 34.5781 128.125 34.6875H127.578C127.469 34.6875 127.359 34.6693 127.25 34.6328C127.432 36.3828 127.578 37.7865 127.688 38.8438C127.797 39.901 127.852 40.4844 127.852 40.5938C127.852 40.849 127.724 41.2135 127.469 41.6875C127.25 42.1615 126.995 42.599 126.703 43C126.411 43.401 126.102 43.7109 125.773 43.9297C125.482 44.1849 125.281 44.2031 125.172 43.9844C124.99 43.6562 124.607 42.6719 124.023 41.0312C123.44 39.3906 122.784 37.1484 122.055 34.3047C121.326 34.2318 120.56 34.1589 119.758 34.0859C118.992 34.013 118.208 33.9401 117.406 33.8672C116.604 33.7943 115.802 33.7031 115 33.5938C114.234 33.4479 113.487 33.3203 112.758 33.2109C112.393 34.8151 112.029 36.3281 111.664 37.75C111.336 39.1719 111.008 40.4115 110.68 41.4688C110.388 42.526 110.133 43.3646 109.914 43.9844C109.695 44.6042 109.531 44.9141 109.422 44.9141C109.13 44.9141 108.839 44.7318 108.547 44.3672C108.255 44.0026 107.982 43.5651 107.727 43.0547C107.508 42.5443 107.326 42.0156 107.18 41.4688C107.034 40.9219 106.961 40.4661 106.961 40.1016C107.034 39.263 107.125 38.388 107.234 37.4766C107.38 36.5651 107.49 35.7266 107.562 34.9609C107.672 34.0495 107.781 33.1562 107.891 32.2812H107.672C107.526 32.2083 107.326 32.0443 107.07 31.7891C106.815 31.5339 106.56 31.2786 106.305 31.0234C106.049 30.7318 105.831 30.4583 105.648 30.2031C105.466 29.9115 105.375 29.6927 105.375 29.5469C105.375 29.474 105.63 29.401 106.141 29.3281C106.688 29.2552 107.398 29.1823 108.273 29.1094C108.565 26.9219 108.875 24.6432 109.203 22.2734C109.531 19.9036 109.859 17.6797 110.188 15.6016C110.516 13.5234 110.826 11.7188 111.117 10.1875C111.445 8.61979 111.719 7.54427 111.938 6.96094C112.302 5.97656 112.94 5.10156 113.852 4.33594C114.763 3.53385 115.711 2.8776 116.695 2.36719C117.716 1.82031 118.682 1.40104 119.594 1.10938C120.505 0.817708 121.18 0.671875 121.617 0.671875C121.799 0.671875 122 1.09115 122.219 1.92969C122.474 2.73177 122.729 3.82552 122.984 5.21094C123.276 6.59635 123.568 8.21875 123.859 10.0781C124.188 11.901 124.497 13.8333 124.789 15.875C125.081 17.9167 125.354 20.013 125.609 22.1641C125.901 24.2786 126.174 26.3021 126.43 28.2344C128.253 28.2344 129.255 28.2891 129.438 28.3984ZM113.797 28.7266C114.964 28.6536 116.13 28.599 117.297 28.5625C118.464 28.526 119.612 28.4714 120.742 28.3984C120.451 26.9766 120.122 25.3906 119.758 23.6406C119.466 22.1458 119.12 20.3958 118.719 18.3906C118.318 16.3854 117.917 14.1797 117.516 11.7734C117.078 13.9245 116.641 16.0208 116.203 18.0625C115.766 20.0677 115.365 21.8724 115 23.4766C114.599 25.3359 114.198 27.0859 113.797 28.7266ZM144.531 24.7344C143.875 25.1354 143.219 25.5182 142.562 25.8828C142.016 26.1745 141.432 26.4844 140.812 26.8125C140.229 27.1406 139.737 27.3958 139.336 27.5781C139.263 31.3698 139.172 34.2865 139.062 36.3281C138.99 38.3698 138.935 39.8646 138.898 40.8125C138.826 41.9427 138.753 42.5807 138.68 42.7266C138.607 42.7266 138.388 42.5807 138.023 42.2891C137.659 41.9609 137.258 41.5781 136.82 41.1406C136.419 40.7031 136.036 40.2656 135.672 39.8281C135.344 39.3906 135.143 39.0625 135.07 38.8438C135.034 38.3698 134.943 37.0026 134.797 34.7422C134.724 33.7578 134.651 32.5365 134.578 31.0781C134.505 29.6198 134.414 27.8516 134.305 25.7734C134.195 23.6953 134.068 21.2526 133.922 18.4453C133.812 15.638 133.685 12.4115 133.539 8.76562C132.883 8.72917 132.336 8.71094 131.898 8.71094C131.497 8.71094 131.188 8.72917 130.969 8.76562C130.75 8.76562 130.586 8.76562 130.477 8.76562C130.367 8.72917 130.276 8.63802 130.203 8.49219C130.057 8.20052 129.948 7.70833 129.875 7.01562C129.802 6.28646 129.766 5.59375 129.766 4.9375C129.766 4.20833 129.857 3.47917 130.039 2.75C130.258 2.02083 130.513 1.5651 130.805 1.38281C130.914 1.3099 131.188 1.29167 131.625 1.32812C132.099 1.36458 132.646 1.4375 133.266 1.54688C133.885 1.65625 134.56 1.78385 135.289 1.92969C136.018 2.07552 136.711 2.22135 137.367 2.36719C138.023 2.51302 138.589 2.65885 139.062 2.80469C139.573 2.91406 139.938 2.98698 140.156 3.02344C140.521 3.09635 141.195 3.3151 142.18 3.67969C143.164 4.00781 144.203 4.42708 145.297 4.9375C146.427 5.41146 147.484 5.9401 148.469 6.52344C149.49 7.07031 150.237 7.61719 150.711 8.16406C150.893 8.38281 151.057 9.0026 151.203 10.0234C151.385 11.0443 151.513 12.1562 151.586 13.3594C151.695 14.526 151.732 15.6562 151.695 16.75C151.695 17.8073 151.604 18.5 151.422 18.8281C151.276 19.0469 151.003 19.3932 150.602 19.8672C150.201 20.3411 149.69 20.8698 149.07 21.4531C148.487 22 147.812 22.5651 147.047 23.1484C146.281 23.7318 145.443 24.2604 144.531 24.7344ZM139.5 23.5859C139.828 23.4036 140.229 23.0573 140.703 22.5469C141.214 22 141.742 21.3984 142.289 20.7422C142.836 20.0495 143.383 19.3385 143.93 18.6094C144.477 17.8438 144.969 17.1328 145.406 16.4766C145.88 15.8203 146.245 15.2552 146.5 14.7812C146.792 14.2708 146.938 13.9427 146.938 13.7969C146.938 13.5781 146.773 13.3047 146.445 12.9766C146.117 12.612 145.643 12.2474 145.023 11.8828C144.44 11.5182 143.711 11.1719 142.836 10.8438C141.997 10.4792 141.068 10.1693 140.047 9.91406L139.5 23.5859ZM166.516 24.7344C165.859 25.1354 165.203 25.5182 164.547 25.8828C164 26.1745 163.417 26.4844 162.797 26.8125C162.214 27.1406 161.721 27.3958 161.32 27.5781C161.247 31.3698 161.156 34.2865 161.047 36.3281C160.974 38.3698 160.919 39.8646 160.883 40.8125C160.81 41.9427 160.737 42.5807 160.664 42.7266C160.591 42.7266 160.372 42.5807 160.008 42.2891C159.643 41.9609 159.242 41.5781 158.805 41.1406C158.404 40.7031 158.021 40.2656 157.656 39.8281C157.328 39.3906 157.128 39.0625 157.055 38.8438C157.018 38.3698 156.927 37.0026 156.781 34.7422C156.708 33.7578 156.635 32.5365 156.562 31.0781C156.49 29.6198 156.398 27.8516 156.289 25.7734C156.18 23.6953 156.052 21.2526 155.906 18.4453C155.797 15.638 155.669 12.4115 155.523 8.76562C154.867 8.72917 154.32 8.71094 153.883 8.71094C153.482 8.71094 153.172 8.72917 152.953 8.76562C152.734 8.76562 152.57 8.76562 152.461 8.76562C152.352 8.72917 152.26 8.63802 152.188 8.49219C152.042 8.20052 151.932 7.70833 151.859 7.01562C151.786 6.28646 151.75 5.59375 151.75 4.9375C151.75 4.20833 151.841 3.47917 152.023 2.75C152.242 2.02083 152.497 1.5651 152.789 1.38281C152.898 1.3099 153.172 1.29167 153.609 1.32812C154.083 1.36458 154.63 1.4375 155.25 1.54688C155.87 1.65625 156.544 1.78385 157.273 1.92969C158.003 2.07552 158.695 2.22135 159.352 2.36719C160.008 2.51302 160.573 2.65885 161.047 2.80469C161.557 2.91406 161.922 2.98698 162.141 3.02344C162.505 3.09635 163.18 3.3151 164.164 3.67969C165.148 4.00781 166.188 4.42708 167.281 4.9375C168.411 5.41146 169.469 5.9401 170.453 6.52344C171.474 7.07031 172.221 7.61719 172.695 8.16406C172.878 8.38281 173.042 9.0026 173.188 10.0234C173.37 11.0443 173.497 12.1562 173.57 13.3594C173.68 14.526 173.716 15.6562 173.68 16.75C173.68 17.8073 173.589 18.5 173.406 18.8281C173.26 19.0469 172.987 19.3932 172.586 19.8672C172.185 20.3411 171.674 20.8698 171.055 21.4531C170.471 22 169.797 22.5651 169.031 23.1484C168.266 23.7318 167.427 24.2604 166.516 24.7344ZM161.484 23.5859C161.812 23.4036 162.214 23.0573 162.688 22.5469C163.198 22 163.727 21.3984 164.273 20.7422C164.82 20.0495 165.367 19.3385 165.914 18.6094C166.461 17.8438 166.953 17.1328 167.391 16.4766C167.865 15.8203 168.229 15.2552 168.484 14.7812C168.776 14.2708 168.922 13.9427 168.922 13.7969C168.922 13.5781 168.758 13.3047 168.43 12.9766C168.102 12.612 167.628 12.2474 167.008 11.8828C166.424 11.5182 165.695 11.1719 164.82 10.8438C163.982 10.4792 163.052 10.1693 162.031 9.91406L161.484 23.5859Z" fill="#FF577F"/>
</g>
<defs>
<filter id="filter0_d_1_3" x="0.09375" y="0.671875" width="177.641" height="52.2422" filterUnits="userSpaceOnUse" color-interpolation-filters="sRGB">
<feFlood flood-opacity="0" result="BackgroundImageFix"/>
<feColorMatrix in="SourceAlpha" type="matrix" values="0 0 0 0 0 0 0 0 0 0 0 0 0 0 0 0 0 0 127 0" result="hardAlpha"/>
<feOffset dy="4"/>
<feGaussianBlur stdDeviation="2"/>
<feComposite in2="hardAlpha" operator="out"/>
<feColorMatrix type="matrix" values="0 0 0 0 0 0 0 0 0 0 0 0 0 0 0 0 0 0 0.25 0"/>
<feBlend mode="normal" in2="BackgroundImageFix" result="effect1_dropShadow_1_3"/>
<feBlend mode="normal" in="SourceGraphic" in2="effect1_dropShadow_1_3" result="shape"/>
</filter>
</defs>
</svg>
