<svg width="523" height="443" viewBox="0 0 523 443" fill="none" xmlns="http://www.w3.org/2000/svg">
<path d="M243.174 0.735523C169.841 7.00219 105.308 48.4689 68.3742 113.136C55.5742 135.536 45.5742 165.002 42.3742 190.069C41.5742 196.602 40.6409 203.669 40.3742 205.936L39.7076 210.202L23.3076 210.602C7.97425 211.136 6.50758 211.402 3.30758 214.336C-0.559088 218.069 -0.959088 221.002 1.70758 226.202C2.77425 228.202 21.8409 247.936 44.1076 270.202C83.4409 309.269 84.7742 310.469 89.8409 310.469C94.9076 310.469 96.2409 309.269 135.574 270.069C157.841 247.936 176.908 228.202 177.974 226.202C180.641 221.002 180.241 218.069 176.374 214.336C173.308 211.402 171.574 211.136 156.641 210.469L140.374 209.802L142.108 199.402C149.841 153.536 186.774 114.736 233.841 103.136C248.241 99.6689 250.508 97.9355 250.508 91.0022C250.508 86.3355 245.574 81.1355 241.308 81.1355C236.241 81.1355 215.708 87.1355 205.041 91.6689C188.108 99.0022 175.441 107.936 160.508 123.136C136.508 147.402 123.174 176.469 120.241 211.402C118.908 227.536 122.641 231.802 138.508 231.802H144.508L117.174 259.136L89.8409 286.469L62.7742 259.536L35.8409 232.469L43.4409 231.669C58.7742 230.069 58.9076 229.936 61.0409 204.469C65.1742 155.669 84.7742 113.802 119.308 79.2689C153.574 45.0022 195.174 25.5355 243.841 20.8689C269.574 18.4689 298.374 21.8022 323.441 29.9355C336.908 34.2022 361.174 45.9355 371.974 53.1355C383.174 60.7355 401.308 75.9355 407.974 83.5355L413.308 89.6689L392.374 110.602L371.308 131.669L359.974 120.736C348.908 110.202 335.708 100.469 324.508 94.8689C316.908 90.8689 297.974 84.4689 288.108 82.4689C280.241 80.8689 279.441 80.8689 276.108 83.4022C271.974 86.4689 270.641 93.6689 273.441 97.5355C274.508 99.0022 280.241 101.136 288.508 103.136C313.041 109.136 337.708 124.069 351.974 141.269C362.774 154.336 365.974 157.136 369.974 157.136C373.041 157.136 379.041 151.802 404.641 126.202C421.708 109.269 435.974 93.9355 436.508 92.2022C437.708 87.0022 433.708 81.2689 416.641 64.4689C386.374 34.3355 351.308 15.0022 309.841 5.40219C289.308 0.602189 264.374 -1.13114 243.174 0.735523Z" fill="white" fill-opacity="0.8"/>
<path d="M386.774 172.069C364.508 194.336 345.441 214.069 344.374 216.069C341.708 221.269 342.108 224.202 345.974 227.936C349.174 230.869 350.641 231.136 365.708 231.536L382.108 232.069L380.908 239.536C373.841 286.736 338.374 325.802 291.174 338.736C276.108 342.736 246.641 342.736 231.174 338.602C209.041 332.736 183.708 317.136 170.374 301.002C159.574 287.936 156.374 285.136 152.374 285.136C149.308 285.136 143.308 290.469 117.708 316.069C100.641 333.002 86.3742 348.336 85.8409 350.069C84.6409 355.269 88.6409 361.002 105.708 377.802C156.774 428.602 226.241 450.736 297.841 439.136C391.308 424.069 468.108 345.269 479.974 252.202C480.774 245.669 481.708 238.602 481.974 236.336L482.641 232.069L499.041 231.669C514.374 231.136 515.841 230.869 519.041 227.936C522.908 224.202 523.308 221.269 520.641 216.069C519.574 214.069 500.508 194.336 478.241 172.069C438.908 133.002 437.574 131.802 432.508 131.802C427.441 131.802 426.108 133.002 386.774 172.069ZM478.908 210.602C463.574 212.202 463.441 212.336 461.308 237.802C457.174 286.602 437.574 328.469 403.041 363.002C368.774 397.269 327.174 416.736 278.508 421.402C252.774 423.802 223.974 420.469 198.908 412.336C185.441 408.069 161.174 396.336 150.374 389.136C139.174 381.536 121.041 366.336 114.374 358.736L109.041 352.602L130.108 331.536L151.174 310.469L161.174 320.336C179.308 338.069 196.908 348.869 219.441 355.669C241.974 362.602 261.441 364.069 283.174 360.469C343.841 350.602 390.641 303.802 400.508 243.136C405.041 215.936 402.241 210.469 383.841 210.469H377.841L405.174 183.136L432.508 155.802L459.574 182.736L486.508 209.802L478.908 210.602Z" fill="white" fill-opacity="0.8"/>
</svg>
